<svg width="8" height="4" viewBox="0 0 8 4" fill="none" xmlns="http://www.w3.org/2000/svg">
<path id="Vector" d="M3.68784 3.89139L0.127804 0.861476C0.045398 0.791398 0 0.697849 0 0.598101C0 0.498353 0.045398 0.404805 0.127804 0.334726L0.389915 0.111594C0.560711 -0.0335999 0.838302 -0.0335999 1.00884 0.111594L3.99834 2.65589L6.99116 0.108771C7.07357 0.0386925 7.18342 0 7.30056 0C7.41783 0 7.52768 0.0386925 7.61015 0.108771L7.8722 0.331903C7.9546 0.402037 8 0.49553 8 0.595278C8 0.695026 7.9546 0.788575 7.8722 0.858653L4.30891 3.89139C4.22624 3.96164 4.11587 4.00022 3.99854 4C3.88075 4.00022 3.77044 3.96164 3.68784 3.89139Z" fill="black"/>
</svg>
